<?xml version="1.0" encoding="utf-8"?>
<!-- Generator: Adobe Illustrator 25.2.3, SVG Export Plug-In . SVG Version: 6.00 Build 0)  -->
<svg version="1.1" id="Layer_1" xmlns="http://www.w3.org/2000/svg" xmlns:xlink="http://www.w3.org/1999/xlink" x="0px" y="0px"
	 viewBox="0 0 1406.3 926.6" style="enable-background:new 0 0 1406.3 926.6;" xml:space="preserve">
<style type="text/css">
	.st0{fill:#F75A5D;}
	.st1{fill:#262626;}
	.st2{fill:#FFFFFF;}
	.st3{font-family:'Futura-Bold';}
	.st4{font-size:20px;}
	.st5{fill:#F4DDDE;}
	.st6{fill:#F5D0D1;}
	.st7{fill:#F67F82;}
	.st8{fill:#F6989A;}
	.st9{fill:#F6797C;}
	.st10{fill:#F76063;}
	.st11{fill:#F5B7B9;}
	.st12{fill:#F68C8E;}
	.st13{fill:#F76769;}
	.st14{fill:#F69FA1;}
	.st15{fill:#F69294;}
	.st16{fill:#F5ABAD;}
	.st17{fill:#F66D70;}
	.st18{fill:#F4D6D8;}
	.st19{fill:#F5C4C5;}
	.st20{fill:#F75457;}
	.st21{fill:#F68688;}
	.st22{fill:#F5B1B3;}
	.st23{fill:#F67376;}
	.st24{font-size:20.1415px;}
	.st25{fill:#F4E3E4;}
	.st26{fill:#F4E9EA;}
	.st27{fill:#F5BEBF;}
	.st28{fill:#F5A5A7;}
</style>
<polygon id="shape-germany" class="st0" points="722.4,544.2 817,524.2 826.9,382 703.4,404.1 "/>
<g>
	<rect x="690.3" y="413" class="st1" width="161.8" height="46.7"/>
	<text transform="matrix(1 0 0 1 706.5293 443.371)" class="st2 st3 st4">Deutschland</text>
</g>
<polygon id="shape-hungary" class="st5" points="878.6,549.3 953.9,546.6 953.9,571.2 863.7,593.9 "/>
<g>
	<rect x="887.2" y="559.1" class="st1" width="114.4" height="46.8"/>
	<text transform="matrix(1 0 0 1 904.8691 589.4766)" class="st2 st3 st4">Ungarn</text>
</g>
<polygon id="shape-france" class="st6" points="714.8,576.5 607,607.6 574.5,477.5 702.5,481.8 "/>
<g>
	<rect x="566.6" y="512.3" class="st1" width="143.8" height="46.8"/>
	<text transform="matrix(1 0 0 1 583.0413 542.6113)" class="st2 st3 st4">Frankreich</text>
</g>
<polygon id="shape-spain" class="st7" points="482,552.3 588.8,567.1 612.3,670.9 490.1,708.4 "/>
<g>
	<rect x="523" y="614" class="st1" width="122.7" height="46.8"/>
	<text transform="matrix(1 0 0 1 540.5443 644.3273)" class="st2 st3 st4">Spanien</text>
</g>
<polygon id="shape-unitedstates" class="st8" points="122.3,277.7 426.6,304.8 395.2,473.9 185.9,456.4 "/>
<g>
	<rect x="168.2" y="345.5" class="st1" width="235.4" height="46.7"/>
	<text transform="matrix(1 0 0 1 187.1244 375.7944)" class="st2 st3 st4">Vereinigte Staaten</text>
</g>
<polygon id="shape-australia" class="st9" points="1279.3,839.4 1080,819.3 1103.3,706.7 1236.7,665.7 "/>
<g>
	<rect x="1104.8" y="737.2" class="st1" width="141.8" height="46.8"/>
	<text transform="matrix(1 0 0 1 1122.9384 767.5645)" class="st2 st3 st4">Australien</text>
</g>
<polygon id="shape-canada" class="st10" points="428.7,293.4 119.1,264.6 71.1,114 481,172.7 "/>
<g>
	<rect x="226.7" y="189.1" class="st1" width="118.4" height="46.8"/>
	<text transform="matrix(1 0 0 1 244.0835 219.4707)" class="st2 st3 st4">Kanada</text>
</g>
<polygon id="shape-portugal" class="st11" points="452.6,595.8 475.4,568.5 481.3,685.6 446,673.1 "/>
<g>
	<rect x="387.5" y="607" class="st1" width="127.3" height="46.8"/>
	<text transform="matrix(1 0 0 1 405.041 637.3301)" class="st2 st3 st4">Portugal</text>
</g>
<polygon id="shape-uk" class="st12" points="637.4,270.6 597,273.7 561.6,425.3 636,429.9 "/>
<g>
	<rect x="419.1" y="307.1" class="st1" width="269.6" height="46.7"/>
	<text transform="matrix(1 0 0 1 432.9008 337.3621)" class="st2 st3 st4">Vereinigtes Königreich</text>
</g>
<polygon id="shape-belgium" class="st13" points="685.8,447.4 658.8,439.8 647.4,468.7 682.4,471.1 "/>
<g>
	<rect x="570.6" y="414" class="st1" width="115.7" height="46.7"/>
	<text transform="matrix(1 0 0 1 588.7446 444.3618)" class="st2 st3 st4">Belgien</text>
</g>
<polygon id="shape-luxembourg" class="st14" points="700.4,450.4 692.6,450.4 688.9,471.9 703.4,472.9 "/>
<g>
	<rect x="655.3" y="461" class="st1" width="159.1" height="46.7"/>
	<text transform="matrix(1 0 0 1 672.6001 491.2617)" class="st2 st3 st4">Luxemburg</text>
</g>
<polygon id="shape-denmark" class="st15" points="808.5,375.9 787.5,311.9 755.1,311.9 754.2,386.4 "/>
<g>
	<rect x="702.5" y="311.5" class="st1" width="142" height="46.7"/>
	<text transform="matrix(1 0 0 1 716.5465 341.8058)" class="st2 st3 st4">Dänemark</text>
</g>
<polygon id="shape-estonia" class="st16" points="1003.8,256.8 950.4,268.2 941.6,290.9 1008.2,303.2 "/>
<g>
	<rect x="917.5" y="245.4" class="st1" width="114.8" height="46.7"/>
	<text transform="matrix(1 0 0 1 937.6357 275.7197)" class="st2 st3 st4">Estland</text>
</g>
<polygon id="shape-newzealand" class="st17" points="1334.8,818.5 1272.1,877.2 1299.4,898.9 1334.8,863.5 "/>
<g>
	<rect x="1218" y="846.1" class="st1" width="170.1" height="46.8"/>
	<text transform="matrix(1 0 0 1 1240.0497 876.4202)" class="st2 st3 st4">Neuseeland</text>
</g>
<polygon id="shape-latvia" class="st18" points="925,294.4 1013.4,317.2 1022.2,340 920.6,340.8 "/>
<g>
	<rect x="903.9" y="314.8" class="st1" width="120" height="46.7"/>
	<text transform="matrix(1 0 0 1 921.0293 345.1758)" class="st2 st3 st4">Lettland</text>
</g>
<polygon id="shape-sweden" class="st19" points="826.9,368.9 966.1,44 873.3,27.3 797.1,299.7 "/>
<g>
	<rect x="746.5" y="147.2" class="st1" width="143.9" height="46.7"/>
	<text transform="matrix(1 0 0 1 765.6413 177.502)" class="st2 st3 st4">Schweden</text>
</g>
<polygon id="shape-netherlands" class="st20" points="693.8,404.8 665.8,407.4 659.6,428.4 695.5,439.8 "/>
<g>
	<rect x="591.1" y="362.8" class="st1" width="166.1" height="46.7"/>
	<text transform="matrix(1 0 0 1 608.4094 393.1463)" class="st2 st3 st4">Niederlande</text>
</g>
<polygon id="shape-poland" class="st19" points="965.3,394.2 838.4,394.2 831.2,460.8 943.8,502.4 "/>
<g>
	<rect x="856" y="398.9" class="st1" width="96.5" height="46.7"/>
	<text transform="matrix(1 0 0 1 875.4435 429.2959)" class="st2 st3 st4">Polen</text>
</g>
<polygon id="shape-finland" class="st21" points="1017.8,205.1 913.6,244.5 972.3,47.5 1003.8,65 "/>
<g>
	<rect x="955.8" y="122.6" class="st1" width="123.9" height="46.8"/>
	<text transform="matrix(1 0 0 1 975.9434 152.9316)" class="st2 st3 st4">Finnland</text>
</g>
<polygon id="shape-czechrepublic" class="st22" points="888.3,493.7 840.9,474.8 838.3,515.1 878.6,523 "/>
<g>
	<rect x="833.8" y="454.1" class="st1" width="148.3" height="46.7"/>
	<text transform="matrix(1 0 0 1 851.1982 484.3809)" class="st2 st3 st4">Tschechien</text>
</g>
<polygon id="shape-austria" class="st23" points="768.2,545.8 844.4,527.4 863.7,557.1 795.4,565.9 "/>
<g>
	<rect x="733.4" y="512.2" class="st1" width="138.2" height="47.1"/>
	<text transform="matrix(1 0 0 1 748.2191 542.6602)" class="st2 st3 st24">Österreich</text>
</g>
<polygon id="shape-slovakia" class="st25" points="952.1,515.1 898.7,497.6 883.8,537.9 938.1,537 "/>
<g>
	<rect x="890.7" y="508.5" class="st1" width="126.5" height="46.7"/>
	<text transform="matrix(1 0 0 1 906.0615 538.8145)" class="st2 st3 st4">Slowakei</text>
</g>
<polygon id="shape-greece" class="st26" points="1029.2,682.4 924.1,745.4 952.1,813.7 981,803.2 "/>
<g>
	<rect x="875.2" y="727.2" class="st1" width="171.8" height="46.8"/>
	<text transform="matrix(1 0 0 1 888.7986 757.5645)" class="st2 st3 st4">Griechenland</text>
</g>
<polygon id="shape-italy" class="st27" points="860.2,741.9 878.6,728.8 786.6,576.4 724.4,599.2 "/>
<g>
	<rect x="755.6" y="637.4" class="st1" width="98.7" height="46.8"/>
	<text transform="matrix(1 0 0 1 772.0253 667.7246)" class="st2 st3 st4">Italien</text>
</g>
<polygon id="shape-slovenia" class="st28" points="854.9,567.6 801.5,573.8 813.8,597.4 853.2,593.9 "/>
<g>
	<rect x="743.2" y="578.3" class="st1" width="141.5" height="46.8"/>
	<text transform="matrix(1 0 0 1 758.6382 608.6105)" class="st2 st3 st4">Slowenien</text>
</g>
</svg>
