<?xml version="1.0" encoding="utf-8"?>
<!-- Generator: Adobe Illustrator 25.2.3, SVG Export Plug-In . SVG Version: 6.00 Build 0)  -->
<svg version="1.1" id="Layer_1" xmlns="http://www.w3.org/2000/svg" xmlns:xlink="http://www.w3.org/1999/xlink" x="0px" y="0px"
	 viewBox="0 0 1406.3 926.6" style="enable-background:new 0 0 1406.3 926.6;" xml:space="preserve">
<style type="text/css">
	.st0{fill:#F5BEBF;}
	.st1{fill:#F66D70;}
	.st2{fill:#F4D6D8;}
	.st3{fill:#F4E3E4;}
	.st4{fill:#F4DDDE;}
	.st5{fill:#F5A5A7;}
	.st6{fill:#F67376;}
	.st7{fill:#F76769;}
	.st8{fill:#F68688;}
	.st9{fill:#F67F82;}
	.st10{fill:#F68C8E;}
	.st11{fill:#F4E9EA;}
	.st12{fill:#F5B7B9;}
	.st13{fill:#F69FA1;}
	.st14{fill:#F75A5D;}
	.st15{fill:#F5ABAD;}
	.st16{fill:#F6797C;}
	.st17{fill:#F5B1B3;}
	.st18{fill:#F69294;}
	.st19{fill:#F76063;}
	.st20{fill:#F5C4C5;}
	.st21{fill:#F5D0D1;}
	.st22{fill:#F5CACB;}
	.st23{fill:#F6989A;}
	.st24{fill:#F75457;}
	.st25{fill:#262626;}
	.st26{fill:#FFFFFF;}
	.st27{font-family:'Futura-Bold';}
	.st28{font-size:16px;}
</style>
<polygon class="st0" points="714.8,576.5 607,607.6 574.5,477.5 702.5,481.8 "/>
<polygon class="st1" points="482,552.3 588.8,567.1 612.3,670.9 490.1,708.4 "/>
<polygon class="st2" points="122.3,277.7 426.6,304.8 395.2,473.9 185.9,456.4 "/>
<polygon class="st3" points="1279.3,839.4 1080,819.3 1103.3,706.7 1236.7,665.7 "/>
<polygon class="st4" points="428.7,293.4 119.1,264.6 71.1,114 481,172.7 "/>
<polygon class="st5" points="452.6,595.8 475.4,568.5 481.3,685.6 446,673.1 "/>
<polygon class="st6" points="637.4,270.6 597,273.7 561.6,425.3 636,429.9 "/>
<polygon class="st7" points="685.8,447.4 658.8,439.8 647.4,468.7 682.4,471.1 "/>
<polygon class="st8" points="700.4,450.4 692.6,450.4 688.9,471.9 703.4,472.9 "/>
<polygon class="st9" points="808.5,375.9 787.5,311.9 755.1,311.9 754.2,386.4 "/>
<polygon class="st10" points="1003.8,256.8 950.4,268.2 941.6,290.9 1008.2,303.2 "/>
<polygon class="st11" points="1334.8,818.5 1272.1,877.2 1299.4,898.9 1334.8,863.5 "/>
<polygon class="st12" points="925,294.4 1013.4,317.2 1022.2,340 920.6,340.8 "/>
<polygon class="st13" points="826.9,368.9 966.1,44 873.3,27.3 797.1,299.7 "/>
<polygon class="st14" points="693.8,404.8 665.8,407.4 659.6,428.4 695.5,439.8 "/>
<polygon class="st15" points="965.3,394.2 838.4,394.2 831.2,460.8 943.8,502.4 "/>
<polygon class="st16" points="1017.8,205.1 913.6,244.5 972.3,47.5 1003.8,65 "/>
<polygon class="st17" points="888.3,493.7 840.9,474.8 838.3,515.1 878.6,523 "/>
<polygon class="st18" points="854.9,567.6 801.5,573.8 813.8,597.4 853.2,593.9 "/>
<polygon class="st19" points="768.2,545.8 844.4,527.4 863.7,557.1 795.4,565.9 "/>
<polygon class="st20" points="878.6,549.3 953.9,546.6 953.9,571.2 863.7,593.9 "/>
<polygon class="st21" points="952.1,515.1 898.7,497.6 883.8,537.9 938.1,537 "/>
<polygon class="st22" points="1029.2,682.4 924.1,745.4 952.1,813.7 981,803.2 "/>
<polygon class="st23" points="860.2,741.9 878.6,728.8 786.6,576.4 724.4,599.2 "/>
<polygon class="st24" points="722.4,544.2 817,524.2 826.9,382 703.4,404.1 "/>
<g>
	<rect x="724.4" y="390.3" class="st25" width="107" height="37.4"/>
	<text transform="matrix(1 0 0 1 737.3638 414.589)" class="st26 st27 st28">Germany</text>
</g>
<g>
	<rect x="677.6" y="328.5" class="st25" width="100.3" height="37.4"/>
	<text transform="matrix(1 0 0 1 688.8672 352.7119)" class="st26 st27 st28">Denmark</text>
</g>
<g>
	<rect x="553" y="433.2" class="st25" width="100.3" height="37.4"/>
	<text transform="matrix(1 0 0 1 564.3056 457.4815)" class="st26 st27 st28">Denmark</text>
</g>
<g>
	<rect x="547.2" y="382.8" class="st25" width="132.9" height="37.4"/>
	<text transform="matrix(1 0 0 1 561.0333 407.0968)" class="st26 st27 st28">Netherlands</text>
</g>
<g>
	<rect x="697.1" y="460.8" class="st25" width="132.9" height="37.4"/>
	<text transform="matrix(1 0 0 1 710.9185 485.0048)" class="st26 st27 st28">Luxembourg</text>
</g>
<g>
	<rect x="778.9" y="151.9" class="st25" width="99.1" height="37.4"/>
	<text transform="matrix(1 0 0 1 795.004 176.1213)" class="st26 st27 st28">Sweden</text>
</g>
<g>
	<rect x="968.2" y="127.3" class="st25" width="99.1" height="37.4"/>
	<text transform="matrix(1 0 0 1 984.3043 151.5455)" class="st26 st27 st28">Sweden</text>
</g>
<g>
	<rect x="979.6" y="244.5" class="st25" width="91.8" height="37.4"/>
	<text transform="matrix(1 0 0 1 995.6887 268.7643)" class="st26 st27 st28">Estonia</text>
</g>
<g>
	<rect x="968.2" y="322.1" class="st25" width="84" height="37.4"/>
	<text transform="matrix(1 0 0 1 984.3043 346.3927)" class="st26 st27 st28">Latvia</text>
</g>
<g>
	<rect x="859.9" y="379.3" class="st25" width="86.8" height="37.4"/>
	<text transform="matrix(1 0 0 1 873.8542 403.5969)" class="st26 st27 st28">Poland</text>
</g>
<g>
	<rect x="928" y="492.9" class="st25" width="101.2" height="37.4"/>
	<text transform="matrix(1 0 0 1 941.9291 517.1576)" class="st26 st27 st28">Slovakia</text>
</g>
<g>
	<rect x="852.7" y="458.8" class="st25" width="151.5" height="37.4"/>
	<text transform="matrix(1 0 0 1 866.649 483.0046)" class="st26 st27 st28">Czech Republic</text>
</g>
<rect x="826.1" y="581.2" class="st25" width="101.2" height="37.4"/>
<text transform="matrix(1 0 0 1 840.05 605.4584)" class="st26 st27 st28">Slovenia</text>
<rect x="740.1" y="519.2" class="st25" width="91.5" height="37.4"/>
<text transform="matrix(1 0 0 1 754.2401 543.4291)" class="st26 st27 st28">Austria</text>
<rect x="941.6" y="555.8" class="st25" width="103.9" height="37.4"/>
<text transform="matrix(1 0 0 1 955.7657 580.0811)" class="st26 st27 st28">Hungary</text>
<rect x="1126.2" y="741.9" class="st25" width="107" height="37.4"/>
<text transform="matrix(1 0 0 1 1139.0909 766.1719)" class="st26 st27 st28">Australia</text>
<g>
	<rect x="1142.9" y="858.7" class="st25" width="145.7" height="37.4"/>
	<text transform="matrix(1 0 0 1 1156.5072 882.9186)" class="st26 st27 st28">New Zealand</text>
</g>
<g>
	<rect x="607.8" y="517" class="st25" width="91.2" height="37.4"/>
	<text transform="matrix(1 0 0 1 625.9146 541.2293)" class="st26 st27 st28">France</text>
</g>
<g>
	<rect x="563.7" y="328.5" class="st25" width="53.5" height="37.4"/>
	<text transform="matrix(1 0 0 1 577.6086 352.7119)" class="st26 st27 st28">UK</text>
</g>
<g>
	<rect x="260.7" y="350.2" class="st25" width="61.1" height="37.4"/>
	<text transform="matrix(1 0 0 1 274.6336 374.4156)" class="st26 st27 st28">USA</text>
</g>
<g>
	<rect x="238.5" y="193.8" class="st25" width="94.7" height="37.4"/>
	<text transform="matrix(1 0 0 1 252.4369 218.0767)" class="st26 st27 st28">Canada</text>
</g>
<g>
	<rect x="781.7" y="642.1" class="st25" width="64.6" height="37.4"/>
	<text transform="matrix(1 0 0 1 795.6208 666.3401)" class="st26 st27 st28">Italy</text>
</g>
<g>
	<rect x="965.3" y="741.9" class="st25" width="87.5" height="37.4"/>
	<text transform="matrix(1 0 0 1 979.2523 766.1719)" class="st26 st27 st28">Greece</text>
</g>
<rect x="361.4" y="588.9" class="st25" width="101.8" height="37.4"/>
<text transform="matrix(1 0 0 1 375.4423 613.1841)" class="st26 st27 st28">Portugal</text>
<rect x="552.3" y="630.4" class="st25" width="75.8" height="37.4"/>
<text transform="matrix(1 0 0 1 566.3499 654.6215)" class="st26 st27 st28">Spain</text>
</svg>
