<svg width="33" height="355" viewBox="0 0 33 355" fill="none" xmlns="http://www.w3.org/2000/svg">
<path d="M2.951 8.329V11.631H6.409V8.329H8.411V17H6.409V13.321H2.951V17H0.949V8.329H2.951ZM10.3444 8.329H12.3464V17H10.3444V8.329ZM18.4521 13.88V12.268H22.7551V12.359C22.7551 12.957 22.6424 13.6027 22.4171 14.296C22.1917 14.9807 21.8581 15.5527 21.4161 16.012C20.6621 16.8007 19.6307 17.195 18.3221 17.195C17.7067 17.195 17.1391 17.1127 16.6191 16.948C16.0991 16.7833 15.6094 16.4627 15.1501 15.986C14.3007 15.1107 13.8761 14.01 13.8761 12.684C13.8761 11.3407 14.2921 10.2443 15.1241 9.395C15.9387 8.55433 17.0741 8.134 18.5301 8.134C19.4921 8.134 20.3024 8.35067 20.9611 8.784C21.5244 9.15667 21.9924 9.67233 22.3651 10.331L20.5581 11.306C20.3587 10.9073 20.1031 10.5953 19.7911 10.37C19.4097 10.0927 18.9677 9.954 18.4651 9.954C17.7111 9.954 17.1131 10.188 16.6711 10.656C16.1771 11.176 15.9301 11.8607 15.9301 12.71C15.9301 13.5507 16.1727 14.2137 16.6581 14.699C17.1001 15.1497 17.6851 15.375 18.4131 15.375C19.0544 15.375 19.5571 15.219 19.9211 14.907C20.2157 14.673 20.4237 14.3307 20.5451 13.88H18.4521ZM26.2469 8.329V11.631H29.7049V8.329H31.7069V17H29.7049V13.321H26.2469V17H24.2449V8.329H26.2469Z" fill="#4C4C4C"/>
<path d="M0.949 338.329H2.951V345.31H5.642V347H0.949V338.329ZM10.8259 338.134C12.1952 338.134 13.3132 338.554 14.1799 339.395C15.0812 340.27 15.5319 341.362 15.5319 342.671C15.5319 343.962 15.0812 345.046 14.1799 345.921C13.3045 346.77 12.1865 347.195 10.8259 347.195C9.45652 347.195 8.32985 346.77 7.44585 345.921C7.02118 345.522 6.68752 345.046 6.44485 344.491C6.21085 343.928 6.09385 343.33 6.09385 342.697C6.09385 342.09 6.21518 341.492 6.45785 340.903C6.70918 340.305 7.03419 339.807 7.43285 339.408C8.28219 338.559 9.41319 338.134 10.8259 338.134ZM10.8129 339.98C10.0415 339.98 9.40885 340.227 8.91485 340.721C8.40352 341.215 8.14785 341.869 8.14785 342.684C8.14785 343.464 8.41218 344.114 8.94085 344.634C9.44352 345.111 10.0632 345.349 10.7999 345.349C11.5885 345.349 12.2299 345.102 12.7239 344.608C13.2265 344.123 13.4779 343.477 13.4779 342.671C13.4779 341.874 13.2265 341.224 12.7239 340.721C12.2125 340.227 11.5755 339.98 10.8129 339.98ZM15.7434 338.329H17.8234L19.6694 344.075L21.5154 338.329H22.8934L24.7394 344.075L26.5854 338.329H28.6654L25.7144 347H24.0244L22.2044 341.735L20.3844 347H18.6944L15.7434 338.329Z" fill="#4C4C4C"/>
<rect x="11" y="31" width="8" height="293" fill="url(#paint0_linear_328_156)"/>
<defs>
<linearGradient id="paint0_linear_328_156" x1="15" y1="95" x2="15" y2="324" gradientUnits="userSpaceOnUse">
<stop stop-color="#E04D83"/>
<stop offset="1" stop-color="#FFCD98"/>
</linearGradient>
</defs>
</svg>
