<svg xmlns="http://www.w3.org/2000/svg" viewBox="0 0 1263.66 871.53"><defs><style>.cls-1{fill:#f5bebf;}.cls-2{fill:#f66d70;}.cls-3{fill:#f4d6d8;}.cls-4{fill:#f4e3e4;}.cls-5{fill:#f4ddde;}.cls-6{fill:#f5a5a7;}.cls-7{fill:#f67376;}.cls-8{fill:#f76769;}.cls-9{fill:#f68688;}.cls-10{fill:#f67f82;}.cls-11{fill:#f68c8e;}.cls-12{fill:#f4e9ea;}.cls-13{fill:#f5b7b9;}.cls-14{fill:#f69fa1;}.cls-15{fill:#f75a5d;}.cls-16{fill:#f5abad;}.cls-17{fill:#f6797c;}.cls-18{fill:#f5b1b3;}.cls-19{fill:#f69294;}.cls-20{fill:#f76063;}.cls-21{fill:#f5c4c5;}.cls-22{fill:#f5d0d1;}.cls-23{fill:#f5cacb;}.cls-24{fill:#f6989a;}.cls-25{fill:#f75457;}</style></defs><g id="Layer_2" data-name="Layer 2"><g id="Layer_1-2" data-name="Layer 1"><polygon class="cls-1" points="643.65 549.2 535.89 580.3 503.35 450.12 631.36 454.46 643.65 549.2"/><polygon class="cls-2" points="410.88 525 517.63 539.72 541.18 643.52 418.98 681.07 410.88 525"/><polygon class="cls-3" points="51.13 250.41 355.5 277.48 324.01 446.62 114.72 429.1 51.13 250.41"/><polygon class="cls-4" points="1208.19 812.04 1008.83 791.94 1032.14 679.4 1165.59 638.4 1208.19 812.04"/><polygon class="cls-5" points="357.54 266.07 47.92 237.26 0 86.7 409.84 145.37 357.54 266.07"/><polygon class="cls-6" points="381.43 568.43 404.25 541.2 410.14 658.25 374.81 645.73 381.43 568.43"/><polygon class="cls-7" points="566.26 243.25 525.81 246.37 490.43 398.01 564.83 402.55 566.26 243.25"/><polygon class="cls-8" points="614.7 420.02 587.61 412.46 576.22 441.36 611.25 443.78 614.7 420.02"/><polygon class="cls-9" points="629.25 423.09 621.43 423.06 617.75 444.53 632.27 445.53 629.25 423.09"/><polygon class="cls-10" points="737.35 348.54 716.34 284.61 683.93 284.61 683.06 359.04 737.35 348.54"/><polygon class="cls-11" points="932.64 229.44 879.22 240.82 870.46 263.59 937.02 275.85 932.64 229.44"/><polygon class="cls-12" points="1263.66 791.14 1200.96 849.82 1228.29 871.53 1263.66 836.16 1263.66 791.14"/><polygon class="cls-13" points="853.83 267.09 942.27 289.86 951.03 312.63 849.45 313.51 853.83 267.09"/><polygon class="cls-14" points="755.74 341.53 894.98 16.64 802.16 0 725.97 272.35 755.74 341.53"/><polygon class="cls-15" points="622.63 377.43 594.61 380.06 588.48 401.08 624.39 412.46 622.63 377.43"/><polygon class="cls-16" points="894.17 366.89 767.26 366.89 760.05 433.51 872.7 475.11 894.17 366.89"/><polygon class="cls-17" points="946.65 177.77 842.44 217.18 901.11 20.14 932.64 37.66 946.65 177.77"/><polygon class="cls-18" points="817.2 466.34 769.76 447.49 767.13 487.77 807.41 495.66 817.2 466.34"/><polygon class="cls-19" points="783.77 540.32 730.35 546.45 742.61 570.09 782.02 566.59 783.77 540.32"/><polygon class="cls-20" points="697.07 518.42 773.26 500.04 792.52 529.81 724.22 538.57 697.07 518.42"/><polygon class="cls-21" points="807.41 521.93 882.72 519.3 882.72 543.82 792.52 566.59 807.41 521.93"/><polygon class="cls-22" points="880.97 487.77 827.55 470.26 812.67 510.54 866.96 509.67 880.97 487.77"/><polygon class="cls-23" points="958.03 655.04 852.95 718.09 880.97 786.39 909.87 775.89 958.03 655.04"/><polygon class="cls-24" points="789.02 714.59 807.41 701.45 715.46 549.08 653.28 571.84 789.02 714.59"/><polygon class="cls-25" points="651.27 516.82 745.87 496.91 755.74 354.7 632.27 376.76 651.27 516.82"/></g></g></svg>